<svg width="19" height="19" viewBox="0 0 19 19" fill="none" xmlns="http://www.w3.org/2000/svg">
<path d="M9.50004 17.4165C13.8723 17.4165 17.4167 13.8721 17.4167 9.4998C17.4167 5.12754 13.8723 1.58313 9.50004 1.58313C5.12779 1.58313 1.58337 5.12754 1.58337 9.4998C1.58337 13.8721 5.12779 17.4165 9.50004 17.4165Z" fill="#DAFFCE"/>
<path d="M5.93754 9.4998L8.31254 11.8748L13.0625 7.1248M17.4167 9.4998C17.4167 13.8721 13.8723 17.4165 9.50004 17.4165C5.12779 17.4165 1.58337 13.8721 1.58337 9.4998C1.58337 5.12754 5.12779 1.58313 9.50004 1.58313C13.8723 1.58313 17.4167 5.12754 17.4167 9.4998Z" stroke="black" stroke-width="1.5" stroke-linecap="round" stroke-linejoin="round"/>
</svg>
